<svg width="42" height="42" viewBox="0 0 42 42" fill="none" xmlns="http://www.w3.org/2000/svg">
<path fill-rule="evenodd" clip-rule="evenodd" d="M21 42C32.598 42 42 32.598 42 21C42 9.40202 32.598 0 21 0C9.40202 0 0 9.40202 0 21C0 32.598 9.40202 42 21 42ZM28.0001 30V34L30 34V30H34V28.0001H30V24.0001H28.0001V28.0001H24.0001V30H28.0001ZM10.3667 30.3C10.8334 30.7667 11.4035 31 12.077 31H21.4795C21.3701 30.6667 21.2949 30.3333 21.2539 30C21.2129 29.6667 21.1924 29.3334 21.1924 29H12.077C11.9744 29 11.8804 28.9573 11.7949 28.8718C11.7094 28.7863 11.6667 28.6923 11.6667 28.5897V18.7437H27.6667V21.2872C28 21.2462 28.3334 21.2257 28.6667 21.2257C29 21.2257 29.3333 21.2462 29.6667 21.2872V13.4103C29.6667 12.7368 29.4333 12.1667 28.9667 11.7001C28.5 11.2334 27.9299 11.0001 27.2564 11.0001H25.4102V8.17957H23.4103V11.0001H15.9744V8.17957H13.9232V11.0001H12.077C11.4035 11.0001 10.8334 11.2334 10.3667 11.7001C9.90008 12.1667 9.66675 12.7368 9.66675 13.4103V28.5897C9.66675 29.2632 9.90008 29.8333 10.3667 30.3ZM27.6667 16.7437H11.6667V13.4103C11.6667 13.3078 11.7094 13.2137 11.7949 13.1282C11.8804 13.0428 11.9744 13 12.077 13H27.2564C27.359 13 27.453 13.0428 27.5385 13.1282C27.624 13.2137 27.6667 13.3078 27.6667 13.4103V16.7437Z" fill="white"/>
</svg>
