<svg width="187" height="25" viewBox="0 0 187 25" fill="none" xmlns="http://www.w3.org/2000/svg">
<path fill-rule="evenodd" clip-rule="evenodd" d="M92.3634 19.019L84.0127 23.8397C83.6418 24.0541 83.2209 24.1669 82.7925 24.1669C82.3641 24.1669 81.9432 24.0541 81.5723 23.8397L73.2207 19.019C72.8498 18.8046 72.5418 18.4964 72.3277 18.1254C72.1136 17.7543 72.0009 17.3334 72.001 16.905V7.26265C72.0008 6.83421 72.1135 6.41329 72.3276 6.0422C72.5417 5.6711 72.8497 5.36292 73.2207 5.14861L81.5723 0.326955C81.9433 0.112764 82.3641 0 82.7925 0C83.2209 0 83.6417 0.112764 84.0127 0.326955L92.3634 5.14861C92.7345 5.36279 93.0428 5.67093 93.257 6.04203C93.4713 6.41314 93.5841 6.83412 93.5841 7.26265V16.905C93.5841 17.3335 93.4713 17.7545 93.257 18.1256C93.0428 18.4967 92.7345 18.8048 92.3634 19.019ZM90.8852 15.8234V8.36118C90.8852 8.07559 90.81 7.79502 90.6672 7.54769C90.5244 7.30035 90.3191 7.09496 90.0717 6.95216L83.6054 3.21907C83.358 3.07628 83.0775 3.0011 82.7919 3.0011C82.5063 3.0011 82.2258 3.07628 81.9784 3.21907L75.5121 6.95216C75.2647 7.09496 75.0594 7.30035 74.9166 7.54769C74.7738 7.79502 74.6986 8.07559 74.6986 8.36118V15.8284C74.6986 16.1139 74.7738 16.3945 74.9166 16.6418C75.0594 16.8892 75.2647 17.0946 75.5121 17.2374L81.9784 20.9715C82.2258 21.1141 82.5063 21.1893 82.7919 21.1893C83.0775 21.1893 83.358 21.1141 83.6054 20.9715L90.0717 17.2374C90.3191 17.0946 90.5244 16.8892 90.6672 16.6418C90.81 16.3945 90.8852 16.1139 90.8852 15.8284V15.8234ZM87.6482 9.75731V14.4251C87.6482 14.5679 87.6105 14.7082 87.539 14.8318C87.4675 14.9554 87.3647 15.058 87.241 15.1292L83.1983 17.4631C83.0746 17.5345 82.9343 17.5721 82.7915 17.5721C82.6487 17.5721 82.5085 17.5345 82.3848 17.4631L78.3421 15.1292C78.2186 15.0578 78.116 14.9551 78.0447 14.8315C77.9734 14.708 77.9359 14.5678 77.9359 14.4251V9.75731C77.9359 9.61464 77.9734 9.47449 78.0447 9.35092C78.116 9.22735 78.2186 9.12471 78.3421 9.05329L82.3848 6.71937C82.5084 6.64787 82.6487 6.61023 82.7915 6.61023C82.9343 6.61023 83.0746 6.64787 83.1983 6.71937L87.241 9.05329C87.3646 9.12458 87.4674 9.22717 87.5389 9.35075C87.6104 9.47433 87.6481 9.61454 87.6482 9.75731ZM186.814 7.17811L185.384 8.5191L183.956 7.17811H183.778V10.3196H184.527V8.64335L185.325 9.41442H185.453L186.242 8.65518V10.3166H187V7.17516L186.814 7.17811ZM180.685 7.84959H181.579V10.3206H182.339V7.84959H183.245V7.17811H180.682L180.685 7.84959ZM171.74 17.4998H175.95C176.728 17.4993 177.475 17.1897 178.026 16.6389C178.577 16.0882 178.886 15.3413 178.887 14.5625C178.886 13.7837 178.576 13.0372 178.026 12.4866C177.475 11.9361 176.728 11.6266 175.95 11.6261H174.3C173.911 11.6248 173.538 11.4693 173.263 11.1938C172.988 10.9183 172.834 10.5451 172.834 10.1559C172.835 9.76737 172.989 9.39499 173.264 9.12035C173.539 8.84571 173.911 8.6912 174.3 8.69068H177.531V7.17713H174.3C173.51 7.17817 172.753 7.49231 172.194 8.05069C171.636 8.60906 171.322 9.36611 171.32 10.1559C171.32 10.9464 171.634 11.7045 172.193 12.2636C172.752 12.8227 173.51 13.1371 174.3 13.1376H175.95C176.327 13.1384 176.689 13.2888 176.956 13.5559C177.223 13.823 177.373 14.1849 177.373 14.5625C177.373 14.9398 177.223 15.3016 176.956 15.5683C176.689 15.8351 176.327 15.985 175.95 15.9853H171.74V17.4998ZM97.2729 12.3577C97.2417 11.6398 97.3602 10.9233 97.6206 10.2536C97.8811 9.58391 98.2779 8.97565 98.7859 8.46741C99.2938 7.95917 99.9019 7.56204 100.571 7.30123C101.241 7.04042 101.957 6.92162 102.675 6.95235C103.394 6.92011 104.112 7.03777 104.783 7.29784C105.454 7.55793 106.064 7.95474 106.573 8.46308C107.083 8.97142 107.481 9.58018 107.742 10.2507C108.004 10.9212 108.123 11.6387 108.093 12.3577C108.12 13.075 107.998 13.7901 107.735 14.4579C107.472 15.1257 107.074 15.7317 106.565 16.2377C106.056 16.7436 105.447 17.1385 104.778 17.3973C104.108 17.6561 103.392 17.7733 102.675 17.7414C101.959 17.7717 101.245 17.6532 100.577 17.3936C99.9092 17.134 99.3023 16.7389 98.7948 16.233C98.2872 15.7272 97.8899 15.1217 97.628 14.4548C97.366 13.7878 97.2451 13.0738 97.2729 12.3577ZM106.344 12.3577C106.371 11.8648 106.295 11.3717 106.121 10.9094C105.948 10.4472 105.681 10.0258 105.337 9.67188C104.993 9.31792 104.579 9.039 104.122 8.85267C103.665 8.66633 103.174 8.57662 102.68 8.58916C102.188 8.57823 101.699 8.66918 101.243 8.85629C100.787 9.0434 100.375 9.32263 100.033 9.67648C99.6903 10.0303 99.4246 10.4512 99.2524 10.9126C99.0801 11.374 99.0051 11.866 99.032 12.3577C99.0074 12.8473 99.0842 13.3367 99.2577 13.7952C99.4312 14.2537 99.6976 14.6714 100.04 15.022C100.383 15.3727 100.794 15.6487 101.248 15.8328C101.703 16.0169 102.19 16.1051 102.68 16.0918C103.171 16.1065 103.66 16.0195 104.116 15.8361C104.572 15.6528 104.985 15.3771 105.329 15.0263C105.673 14.6756 105.941 14.2575 106.116 13.7982C106.291 13.339 106.368 12.8485 106.344 12.3577ZM115.816 14.1809L119.086 10.7741L119.089 17.4998H120.792V7.17713H120.345L115.612 11.9958L110.916 7.17713H110.433V17.4998H112.136V10.7741L115.422 14.1809H115.816ZM133.106 17.4998H132.659L125.52 10.5838V17.4998H123.817V7.17713H124.264L131.403 13.9905V7.17713H133.106V17.4998ZM136.133 7.17713H137.837V17.4998H136.133V7.17713ZM159.064 13.114H153.868V15.9853H159.993V17.4998H152.165V7.17713H159.993V8.69066H153.868V11.6665H159.064V13.114ZM164.018 13.114H169.214V11.6665H164.018V8.69066H170.142V7.17713H162.315V17.4998H170.142V15.9853H164.018V13.114ZM147.951 12.2877V12.1349C148.384 11.9705 148.754 11.6745 149.01 11.2886C149.266 10.9027 149.395 10.4462 149.378 9.98336C149.378 8.17499 148.036 7.17713 145.663 7.17713H140.879V17.4998H145.834C148.172 17.4998 149.705 16.5039 149.705 14.5605C149.711 14.0399 149.541 13.5325 149.222 13.1208C148.904 12.709 148.455 12.4172 147.95 12.2926L147.951 12.2877ZM145.885 15.9902H142.583V8.69364H145.626C146.866 8.69364 147.606 9.17778 147.606 10.1569C147.606 11.0187 146.866 11.6024 145.626 11.6024H144.866C144.713 11.6024 144.565 11.6632 144.456 11.7714C144.347 11.8797 144.286 12.0266 144.284 12.1802V12.3774C144.285 12.4536 144.3 12.5289 144.329 12.5991C144.359 12.6694 144.402 12.7332 144.456 12.7868C144.51 12.8405 144.574 12.883 144.644 12.9119C144.715 12.9408 144.79 12.9555 144.866 12.9552H146.023C147.108 12.9552 147.915 13.5577 147.915 14.456C147.915 15.4331 147.054 15.9843 145.884 15.9843L145.885 15.9902ZM44.8951 15.3153C44.689 15.5737 44.4369 15.7727 44.1387 15.9121C43.8379 16.0488 43.4863 16.1172 43.084 16.1172C42.7129 16.1172 42.373 16.0371 42.0645 15.877C41.7598 15.7168 41.4961 15.4922 41.2734 15.2031C41.0547 14.9141 40.8848 14.5742 40.7637 14.1836C40.6465 13.7891 40.5879 13.3613 40.5879 12.9004V12.7773C40.5879 12.293 40.6465 11.8535 40.7637 11.459C40.8848 11.0605 41.0547 10.7188 41.2734 10.4336C41.4961 10.1484 41.7598 9.92969 42.0645 9.77734C42.373 9.62109 42.7168 9.54297 43.0957 9.54297C43.4941 9.54297 43.8418 9.61328 44.1387 9.75391C44.4171 9.88048 44.6554 10.0623 44.8535 10.2993V7H45.9434V16H44.9473L44.8951 15.3153ZM44.8535 11.3682C44.779 11.2252 44.6891 11.0953 44.584 10.9785C44.4473 10.8184 44.2773 10.6914 44.0742 10.5977C43.875 10.5039 43.6387 10.457 43.3652 10.457C43.0684 10.457 42.8125 10.5195 42.5977 10.6445C42.3867 10.7656 42.2129 10.9336 42.0762 11.1484C41.9395 11.3594 41.8379 11.6055 41.7715 11.8867C41.709 12.1641 41.6777 12.4609 41.6777 12.7773V12.9004C41.6777 13.2168 41.709 13.5137 41.7715 13.791C41.8379 14.0684 41.9395 14.3125 42.0762 14.5234C42.2129 14.7344 42.3867 14.9004 42.5977 15.0215C42.8086 15.1387 43.0605 15.1973 43.3535 15.1973C43.7129 15.1973 44.0078 15.1211 44.2383 14.9688C44.4727 14.8164 44.6602 14.6152 44.8008 14.3652C44.8189 14.3331 44.8365 14.3005 44.8535 14.2677V11.3682ZM4.13672 12.6543H2.12109V16H0.990234V7.46875H4.13672C4.78125 7.46875 5.32617 7.58008 5.77148 7.80273C6.2168 8.02539 6.55469 8.33398 6.78516 8.72852C7.01562 9.11914 7.13086 9.56641 7.13086 10.0703C7.13086 10.6172 7.01562 11.084 6.78516 11.4707C6.55469 11.8574 6.2168 12.1523 5.77148 12.3555C5.32617 12.5547 4.78125 12.6543 4.13672 12.6543ZM2.12109 8.39453V11.7344H4.13672C4.57812 11.7344 4.93555 11.6641 5.20898 11.5234C5.48242 11.3828 5.68164 11.1875 5.80664 10.9375C5.93555 10.6875 6 10.4023 6 10.082C6 9.78906 5.93555 9.51367 5.80664 9.25586C5.68164 8.99805 5.48242 8.79102 5.20898 8.63477C4.93555 8.47461 4.57812 8.39453 4.13672 8.39453H2.12109ZM8.02734 12.9004V12.7656C8.02734 12.3086 8.09375 11.8848 8.22656 11.4941C8.35938 11.0996 8.55078 10.7578 8.80078 10.4688C9.05078 10.1758 9.35352 9.94922 9.70898 9.78906C10.0645 9.625 10.4629 9.54297 10.9043 9.54297C11.3496 9.54297 11.75 9.625 12.1055 9.78906C12.4648 9.94922 12.7695 10.1758 13.0195 10.4688C13.2734 10.7578 13.4668 11.0996 13.5996 11.4941C13.7324 11.8848 13.7988 12.3086 13.7988 12.7656V12.9004C13.7988 13.3574 13.7324 13.7812 13.5996 14.1719C13.4668 14.5625 13.2734 14.9043 13.0195 15.1973C12.7695 15.4863 12.4668 15.7129 12.1113 15.877C11.7598 16.0371 11.3613 16.1172 10.916 16.1172C10.4707 16.1172 10.0703 16.0371 9.71484 15.877C9.35938 15.7129 9.05469 15.4863 8.80078 15.1973C8.55078 14.9043 8.35938 14.5625 8.22656 14.1719C8.09375 13.7812 8.02734 13.3574 8.02734 12.9004ZM9.11133 12.7656V12.9004C9.11133 13.2168 9.14844 13.5156 9.22266 13.7969C9.29688 14.0742 9.4082 14.3203 9.55664 14.5352C9.70898 14.75 9.89844 14.9199 10.125 15.0449C10.3516 15.166 10.6152 15.2266 10.916 15.2266C11.2129 15.2266 11.4727 15.166 11.6953 15.0449C11.9219 14.9199 12.1094 14.75 12.2578 14.5352C12.4062 14.3203 12.5176 14.0742 12.5918 13.7969C12.6699 13.5156 12.709 13.2168 12.709 12.9004V12.7656C12.709 12.4531 12.6699 12.1582 12.5918 11.8809C12.5176 11.5996 12.4043 11.3516 12.252 11.1367C12.1035 10.918 11.916 10.7461 11.6895 10.6211C11.4668 10.4961 11.2051 10.4336 10.9043 10.4336C10.6074 10.4336 10.3457 10.4961 10.1191 10.6211C9.89648 10.7461 9.70898 10.918 9.55664 11.1367C9.4082 11.3516 9.29688 11.5996 9.22266 11.8809C9.14844 12.1582 9.11133 12.4531 9.11133 12.7656ZM16.6113 16H16.4238L14.584 9.66016H15.668L16.9143 14.3929L18.3926 9.66016H18.5039H19.1074H19.2656L20.7675 14.4916L21.9902 9.66016H23.0684L21.2285 16H21.041H20.502H20.3496L18.8096 11.2L17.3086 16H17.1562H16.6113ZM26.8125 16.1172C26.3711 16.1172 25.9707 16.043 25.6113 15.8945C25.2559 15.7422 24.9492 15.5293 24.6914 15.2559C24.4375 14.9824 24.2422 14.6582 24.1055 14.2832C23.9688 13.9082 23.9004 13.498 23.9004 13.0527V12.8066C23.9004 12.291 23.9766 11.832 24.1289 11.4297C24.2812 11.0234 24.4883 10.6797 24.75 10.3984C25.0117 10.1172 25.3086 9.9043 25.6406 9.75977C25.9727 9.61523 26.3164 9.54297 26.6719 9.54297C27.125 9.54297 27.5156 9.62109 27.8438 9.77734C28.1758 9.93359 28.4473 10.1523 28.6582 10.4336C28.8691 10.7109 29.0254 11.0391 29.127 11.418C29.2285 11.793 29.2793 12.2031 29.2793 12.6484V13.1348H24.9913C24.9981 13.4051 25.0387 13.661 25.1133 13.9023C25.1992 14.1641 25.3223 14.3945 25.4824 14.5938C25.6465 14.793 25.8438 14.9492 26.0742 15.0625C26.3086 15.1758 26.5742 15.2324 26.8711 15.2324C27.2539 15.2324 27.5781 15.1543 27.8438 14.998C28.1094 14.8418 28.3418 14.6328 28.541 14.3711L29.1973 14.8926C29.0605 15.0996 28.8867 15.2969 28.6758 15.4844C28.4648 15.6719 28.2051 15.8242 27.8965 15.9414C27.5918 16.0586 27.2305 16.1172 26.8125 16.1172ZM25.1133 11.793C25.0736 11.9348 25.0435 12.0871 25.023 12.25H28.1953V12.168C28.1797 11.8867 28.1211 11.6133 28.0195 11.3477C27.9219 11.082 27.7656 10.8633 27.5508 10.6914C27.3359 10.5195 27.043 10.4336 26.6719 10.4336C26.4258 10.4336 26.1992 10.4863 25.9922 10.5918C25.7852 10.6934 25.6074 10.8457 25.459 11.0488C25.3105 11.252 25.1953 11.5 25.1133 11.793ZM31.6289 11.4927V16H30.5449V9.66016H31.5996L31.621 10.3878L31.6289 10.375C31.7891 10.1133 31.9922 9.91016 32.2383 9.76562C32.4883 9.61719 32.7852 9.54297 33.1289 9.54297C33.207 9.54297 33.2969 9.55273 33.3984 9.57227C33.5 9.58789 33.5703 9.60547 33.6094 9.625L33.6035 10.6328C33.5137 10.6133 33.4277 10.6016 33.3457 10.5977C33.2676 10.5898 33.1777 10.5859 33.0762 10.5859C32.8262 10.5859 32.6055 10.625 32.4141 10.7031C32.2227 10.7812 32.0605 10.8906 31.9277 11.0312C31.8046 11.1616 31.705 11.3154 31.6289 11.4927ZM37.125 16.1172C36.6836 16.1172 36.2832 16.043 35.9238 15.8945C35.5684 15.7422 35.2617 15.5293 35.0039 15.2559C34.75 14.9824 34.5547 14.6582 34.418 14.2832C34.2812 13.9082 34.2129 13.498 34.2129 13.0527V12.8066C34.2129 12.291 34.2891 11.832 34.4414 11.4297C34.5938 11.0234 34.8008 10.6797 35.0625 10.3984C35.3242 10.1172 35.6211 9.9043 35.9531 9.75977C36.2852 9.61523 36.6289 9.54297 36.9844 9.54297C37.4375 9.54297 37.8281 9.62109 38.1562 9.77734C38.4883 9.93359 38.7598 10.1523 38.9707 10.4336C39.1816 10.7109 39.3379 11.0391 39.4395 11.418C39.541 11.793 39.5918 12.2031 39.5918 12.6484V13.1348H35.3038C35.3106 13.4051 35.3512 13.661 35.4258 13.9023C35.5117 14.1641 35.6348 14.3945 35.7949 14.5938C35.959 14.793 36.1562 14.9492 36.3867 15.0625C36.6211 15.1758 36.8867 15.2324 37.1836 15.2324C37.5664 15.2324 37.8906 15.1543 38.1562 14.998C38.4219 14.8418 38.6543 14.6328 38.8535 14.3711L39.5098 14.8926C39.373 15.0996 39.1992 15.2969 38.9883 15.4844C38.7773 15.6719 38.5176 15.8242 38.209 15.9414C37.9043 16.0586 37.543 16.1172 37.125 16.1172ZM35.4258 11.793C35.3861 11.9348 35.356 12.0871 35.3355 12.25H38.5078V12.168C38.4922 11.8867 38.4336 11.6133 38.332 11.3477C38.2344 11.082 38.0781 10.8633 37.8633 10.6914C37.6484 10.5195 37.3555 10.4336 36.9844 10.4336C36.7383 10.4336 36.5117 10.4863 36.3047 10.5918C36.0977 10.6934 35.9199 10.8457 35.7715 11.0488C35.623 11.252 35.5078 11.5 35.4258 11.793ZM50.6016 7H51.6914V10.3499C51.8974 10.088 52.1493 9.88934 52.4473 9.75391C52.748 9.61328 53.0977 9.54297 53.4961 9.54297C53.8945 9.54297 54.248 9.62109 54.5566 9.77734C54.8652 9.92969 55.123 10.1484 55.3301 10.4336C55.541 10.7188 55.7012 11.0605 55.8105 11.459C55.9199 11.8535 55.9746 12.293 55.9746 12.7773V12.9004C55.9746 13.3613 55.9199 13.7891 55.8105 14.1836C55.7012 14.5742 55.541 14.9141 55.3301 15.2031C55.1191 15.4922 54.8613 15.7168 54.5566 15.877C54.252 16.0371 53.9023 16.1172 53.5078 16.1172C53.1055 16.1172 52.752 16.0488 52.4473 15.9121C52.1465 15.7715 51.8926 15.5703 51.6855 15.3086C51.6747 15.2949 51.6641 15.2811 51.6535 15.2672L51.5977 16H50.6016V7ZM51.6914 11.4419V14.1955C51.7154 14.2446 51.7408 14.2934 51.7676 14.3418C51.9121 14.5918 52.1035 14.7969 52.3418 14.957C52.584 15.1172 52.8828 15.1973 53.2383 15.1973C53.5312 15.1973 53.7812 15.1387 53.9883 15.0215C54.1992 14.9004 54.3691 14.7344 54.498 14.5234C54.6309 14.3125 54.7285 14.0684 54.791 13.791C54.8535 13.5137 54.8848 13.2168 54.8848 12.9004V12.7773C54.8848 12.4609 54.8555 12.1641 54.7969 11.8867C54.7383 11.6055 54.6445 11.3594 54.5156 11.1484C54.3867 10.9336 54.2168 10.7656 54.0059 10.6445C53.7949 10.5195 53.5352 10.457 53.2266 10.457C52.9531 10.457 52.7148 10.5039 52.5117 10.5977C52.3125 10.6914 52.1426 10.8184 52.002 10.9785C51.879 11.1151 51.7755 11.2696 51.6914 11.4419ZM58.8411 15.9316L56.5781 9.66016H57.7617L59.3484 14.4034L60.8203 9.66016H61.9805L59.4375 16.9785C59.3789 17.1348 59.3008 17.3027 59.2031 17.4824C59.1094 17.666 58.9883 17.8398 58.8398 18.0039C58.6914 18.168 58.5117 18.3008 58.3008 18.4023C58.0938 18.5078 57.8457 18.5605 57.5566 18.5605C57.4707 18.5605 57.3613 18.5488 57.2285 18.5254C57.0957 18.502 57.002 18.4824 56.9473 18.4668L56.9414 17.5879C56.9727 17.5918 57.0215 17.5957 57.0879 17.5996C57.1582 17.6074 57.207 17.6113 57.2344 17.6113C57.4805 17.6113 57.6895 17.5781 57.8613 17.5117C58.0332 17.4492 58.1777 17.3418 58.2949 17.1895C58.416 17.041 58.5195 16.8359 58.6055 16.5742L58.8411 15.9316Z" fill="white"/>
</svg>
