<svg width="25" height="26" viewBox="0 0 25 26" fill="none" xmlns="http://www.w3.org/2000/svg">
<path d="M19 26V22H15V20.0001H19V16.0001H21V20.0001H25V22H21V26L19 26ZM3.07695 23C2.40344 23 1.83335 22.7667 1.36669 22.3C0.90002 21.8333 0.666687 21.2632 0.666687 20.5897V5.41033C0.666687 4.73682 0.90002 4.16673 1.36669 3.70007C1.83335 3.2334 2.40344 3.00007 3.07695 3.00007H4.92312V0.179565H6.97435V3.00007H14.4102V0.179565H16.4102V3.00007H18.2564C18.9299 3.00007 19.5 3.2334 19.9666 3.70007C20.4333 4.16673 20.6666 4.73682 20.6666 5.41033V13.2872C20.3333 13.2462 20 13.2257 19.6666 13.2257C19.3333 13.2257 19 13.2462 18.6667 13.2872V10.7437H2.66665V20.5897C2.66665 20.6923 2.70939 20.7863 2.79485 20.8718C2.88034 20.9573 2.97438 21 3.07695 21H12.1923C12.1923 21.3334 12.2128 21.6667 12.2539 22C12.2949 22.3333 12.3701 22.6667 12.4795 23H3.07695ZM2.66665 8.7437H18.6667V5.41033C18.6667 5.30775 18.6239 5.21372 18.5385 5.12823C18.453 5.04277 18.3589 5.00003 18.2564 5.00003H3.07695C2.97438 5.00003 2.88034 5.04277 2.79485 5.12823C2.70939 5.21372 2.66665 5.30775 2.66665 5.41033V8.7437Z" fill="white"/>
</svg>
