<svg width="24" height="24" viewBox="0 0 24 24" fill="none" xmlns="http://www.w3.org/2000/svg">
<path d="M8.21152 17.9904C8.13648 17.9706 8.07315 17.9248 8.03575 17.8632C7.99834 17.8016 7.98999 17.7292 8.01212 17.662C8.26337 16.8897 8.78937 16.2123 9.50988 15.7329C10.228 15.251 11.1025 14.9936 11.9994 15.0001C12.8951 14.9944 13.7684 15.2509 14.4867 15.7307C15.2081 16.2093 15.7352 16.8862 15.9879 17.6582C16.01 17.7255 16.0017 17.7978 15.9643 17.8595C15.9268 17.9211 15.8635 17.9668 15.7885 17.9867C15.7132 18.0061 15.6326 17.9983 15.5637 17.9649C15.4949 17.9314 15.4432 17.8751 15.4202 17.8079C15.2052 17.1459 14.7541 16.5654 14.1357 16.1556C13.5191 15.7443 12.7696 15.5246 12.0012 15.5297H11.9971C11.2284 15.5238 10.4786 15.7442 9.86314 16.1572C9.24474 16.5679 8.79348 17.1488 8.57803 17.8111C8.55981 17.8659 8.52258 17.9138 8.47142 17.9478C8.42026 17.9819 8.35822 18.0002 8.2945 18C8.26661 18.0002 8.23845 17.9969 8.21152 17.9904Z" fill="#9C9C9C"/>
<path d="M8 18C9.5 14.5 14.5 14.5 16 18" stroke="#9C9C9C" stroke-linecap="round"/>
<circle cx="12" cy="10" r="3.5" stroke="#9C9C9C"/>
</svg>
