<svg width="24" height="24" viewBox="0 0 24 24" fill="none" xmlns="http://www.w3.org/2000/svg">
<path d="M20.1956 19.037L3.76978 19.0241C3.51524 19.0411 3.26047 19.002 3.02271 18.9095C2.78494 18.8171 2.56999 18.6735 2.3938 18.489C2.11875 18.1625 1.98366 17.7406 2.01782 17.3151C2.01782 17.1941 2.01099 16.626 2.01099 16.057C2.01099 15.684 2.01099 15.3851 2.01099 15.1691C2.01099 14.6511 2.01099 14.584 2.13599 14.436C2.19669 14.3644 2.2764 14.3107 2.36548 14.281C2.73709 14.159 3.05856 13.9201 3.28345 13.6001C3.50833 13.2801 3.62464 12.896 3.61353 12.505C3.60721 12.115 3.48287 11.736 3.25708 11.418C3.03129 11.0999 2.714 10.8576 2.3479 10.723C2.25185 10.6874 2.1689 10.6231 2.1106 10.5388C2.05229 10.4546 2.02127 10.3545 2.02173 10.2521V7.79004C2.01748 7.76795 2.0153 7.74552 2.01489 7.72303C2.00496 7.48641 2.0466 7.25044 2.13599 7.03113C2.22537 6.81182 2.36095 6.6143 2.53345 6.45203C2.84199 6.16076 3.24977 5.99838 3.67407 5.99805C3.71707 5.99805 3.76093 5.99801 3.80493 6.00501H7.40552C7.43844 5.9984 7.47155 5.99504 7.50513 5.995C7.53872 5.99488 7.57184 5.99824 7.60474 6.00501L20.2288 6.01502C20.4834 5.99814 20.7387 6.03685 20.9768 6.12854C21.2149 6.22024 21.4301 6.36273 21.6077 6.54602C21.8806 6.87361 22.0145 7.29494 21.9807 7.71997C21.9807 7.84397 21.9885 8.40903 21.9915 8.97803V9.86902C21.9915 10.387 21.9914 10.4541 21.8674 10.6021C21.8079 10.6728 21.729 10.7251 21.6409 10.7531C21.2691 10.8761 20.9472 11.1154 20.7219 11.4358C20.4966 11.7562 20.3799 12.1405 20.3899 12.532C20.3965 12.9219 20.5206 13.3008 20.7463 13.6188C20.9721 13.9368 21.2896 14.1791 21.6555 14.314C21.7511 14.3494 21.8326 14.4133 21.8909 14.497C21.9491 14.5806 21.9806 14.68 21.9807 14.782V17.25C21.9807 17.27 21.9815 17.294 21.9885 17.314C21.9981 17.5503 21.9562 17.7859 21.8674 18.0051C21.7786 18.2243 21.6443 18.4221 21.4729 18.5851C21.1636 18.877 20.7547 19.0394 20.3293 19.0391C20.2813 19.0441 20.2416 19.04 20.1956 19.037ZM20.218 18.037C20.2336 18.0353 20.2493 18.0353 20.2649 18.037C20.3584 18.0456 20.4525 18.0341 20.5413 18.0034C20.6301 17.9727 20.7122 17.9235 20.7805 17.859C20.8941 17.749 20.9642 17.6024 20.9797 17.4451C20.9777 17.4261 20.9777 17.407 20.9797 17.3881V15.108C20.5075 14.8665 20.1106 14.5009 19.8303 14.0507C19.55 13.6004 19.3972 13.0823 19.3889 12.552C19.3749 12.0085 19.5191 11.4726 19.803 11.0089C20.0869 10.5452 20.499 10.1736 20.9895 9.93897C20.9895 9.47497 20.9887 8.54701 20.9817 7.70301C20.9797 7.68272 20.9797 7.66226 20.9817 7.64197C20.9925 7.48507 20.9457 7.32974 20.8499 7.20508C20.7642 7.13228 20.6643 7.07769 20.5569 7.04468C20.4494 7.01167 20.3366 7.00091 20.2249 7.01306L8.00024 7.00305V8.49597C8.00024 8.62858 7.94753 8.75584 7.85376 8.84961C7.75999 8.94338 7.63285 8.99597 7.50024 8.99597C7.36764 8.99597 7.2405 8.94338 7.14673 8.84961C7.05296 8.75584 7.00024 8.62858 7.00024 8.49597V7.00208H3.77856C3.76395 7.00377 3.74826 7.00377 3.73364 7.00208C3.63961 6.9932 3.54563 7.00446 3.4563 7.03516C3.36697 7.06585 3.28478 7.11525 3.21606 7.18006C3.10342 7.2907 3.03253 7.43698 3.01587 7.594C3.01722 7.61297 3.01722 7.63203 3.01587 7.651V9.93103C3.48868 10.1722 3.88723 10.5375 4.16821 10.9878C4.4492 11.4381 4.60175 11.9564 4.6106 12.4871C4.62441 13.0302 4.48144 13.5655 4.19751 14.0287C3.91358 14.4919 3.50123 14.863 3.01099 15.097C3.01099 15.561 3.01085 16.497 3.01685 17.333C3.02231 17.354 3.02231 17.376 3.01685 17.397C3.00705 17.5542 3.05482 17.7097 3.15161 17.834C3.23666 17.9068 3.33662 17.9615 3.4436 17.9945C3.55059 18.0275 3.66239 18.0382 3.77368 18.026H7.00317V16.5C7.00317 16.3674 7.05589 16.2403 7.14966 16.1465C7.24343 16.0527 7.37057 16 7.50317 16C7.63578 16 7.76292 16.0527 7.85669 16.1465C7.95046 16.2403 8.00317 16.3674 8.00317 16.5V18.027L20.218 18.037ZM15.0071 14.499C15.0071 14.1012 15.1652 13.7197 15.4465 13.4384C15.7278 13.1571 16.1093 12.999 16.5071 12.999C16.9049 12.999 17.2863 13.1571 17.5676 13.4384C17.8489 13.7197 18.0071 14.1012 18.0071 14.499C18.0071 14.8969 17.8489 15.2784 17.5676 15.5597C17.2863 15.841 16.9049 15.999 16.5071 15.999C16.1093 15.999 15.7278 15.841 15.4465 15.5597C15.1652 15.2784 15.0071 14.8969 15.0071 14.499ZM16.0071 14.499C16.0071 14.6316 16.0598 14.7588 16.1536 14.8525C16.2473 14.9463 16.3745 14.999 16.5071 14.999C16.6397 14.999 16.7668 14.9463 16.8606 14.8525C16.9544 14.7588 17.0071 14.6316 17.0071 14.499C17.0071 14.3664 16.9544 14.2393 16.8606 14.1455C16.7668 14.0517 16.6397 13.999 16.5071 13.999C16.4408 13.9981 16.3752 14.0103 16.3137 14.035C16.2522 14.0597 16.1959 14.0964 16.1487 14.1429C16.1015 14.1895 16.0639 14.2449 16.0383 14.306C16.0128 14.3672 16.0002 14.4328 16.0002 14.499H16.0071ZM11.6555 15.353C11.6087 15.3065 11.5705 15.2512 11.5452 15.1903C11.5198 15.1294 11.5071 15.0641 11.5071 14.998C11.5071 14.932 11.5198 14.8667 11.5452 14.8058C11.5705 14.7449 11.6087 14.6896 11.6555 14.6431L16.6555 9.64307C16.7492 9.54964 16.8757 9.49707 17.0081 9.49707C17.1404 9.49707 17.2669 9.54964 17.3606 9.64307C17.4075 9.68955 17.4456 9.74486 17.4709 9.80579C17.4963 9.86672 17.509 9.93204 17.509 9.99805C17.509 10.0641 17.4963 10.1294 17.4709 10.1903C17.4456 10.2512 17.4075 10.3065 17.3606 10.353L12.3606 15.353C12.2665 15.4464 12.1396 15.4986 12.0071 15.498C11.9408 15.499 11.8752 15.4866 11.8137 15.4619C11.7523 15.4372 11.6958 15.4005 11.6487 15.354L11.6555 15.353ZM7.00513 14.001V11.001C7.00513 10.8684 7.05784 10.7412 7.15161 10.6475C7.24538 10.5537 7.37252 10.501 7.50513 10.501C7.63774 10.501 7.76487 10.5537 7.85864 10.6475C7.95241 10.7412 8.00513 10.8684 8.00513 11.001V14.001C8.00513 14.1336 7.95241 14.2608 7.85864 14.3546C7.76487 14.4484 7.63774 14.501 7.50513 14.501C7.43871 14.5019 7.3724 14.4897 7.31079 14.4648C7.24919 14.44 7.19393 14.4031 7.14673 14.3563C7.09953 14.3096 7.06182 14.254 7.03638 14.1926C7.01093 14.1313 6.99802 14.0654 6.99829 13.999L7.00513 14.001ZM11.0051 10.501C11.0051 10.1032 11.1633 9.72162 11.4446 9.44031C11.7259 9.15901 12.1073 9.00098 12.5051 9.00098C12.903 9.00098 13.2844 9.15901 13.5657 9.44031C13.847 9.72162 14.0051 10.1032 14.0051 10.501C14.0051 10.8988 13.847 11.2803 13.5657 11.5616C13.2844 11.843 12.903 12.001 12.5051 12.001C12.3076 12.0016 12.1117 11.9633 11.929 11.8881C11.7463 11.8129 11.5805 11.7023 11.4407 11.5627C11.3008 11.4232 11.1901 11.2574 11.1145 11.0748C11.0389 10.8923 11 10.6966 11.0002 10.499L11.0051 10.501ZM12.0051 10.501C12.0051 10.6336 12.0578 10.7608 12.1516 10.8546C12.2454 10.9484 12.3725 11.001 12.5051 11.001C12.6377 11.001 12.7649 10.9484 12.8586 10.8546C12.9524 10.7608 13.0051 10.6336 13.0051 10.501C13.0051 10.3684 12.9524 10.2412 12.8586 10.1475C12.7649 10.0537 12.6377 10.001 12.5051 10.001C12.3732 10.0015 12.2468 10.0542 12.1536 10.1475C12.0603 10.2407 12.0076 10.3671 12.0071 10.499L12.0051 10.501Z" fill="#9C9C9C"/>
</svg>
