<svg width="24" height="24" viewBox="0 0 24 24" fill="none" xmlns="http://www.w3.org/2000/svg">
<path d="M9.29954 19.1799C9.17238 19.1424 9.06508 19.0559 9.00169 18.9395C8.93831 18.823 8.92414 18.6863 8.96165 18.5591C9.38741 17.0995 10.2788 15.8191 11.4997 14.9131C12.7167 14.0023 14.1985 13.5157 15.7185 13.5281C17.2364 13.5173 18.7161 14.002 19.9333 14.9089C21.1558 15.8134 22.0492 17.0928 22.4773 18.552C22.5148 18.6792 22.5006 18.8159 22.4372 18.9324C22.3739 19.0488 22.2666 19.1353 22.1394 19.1729C22.0118 19.2096 21.8753 19.1948 21.7585 19.1316C21.6418 19.0684 21.5542 18.9619 21.5154 18.835C21.151 17.5838 20.3865 16.4866 19.3386 15.7119C18.2938 14.9346 17.0237 14.5194 15.7214 14.5291H15.7146C14.4119 14.5178 13.1413 14.9345 12.0984 15.7151C11.0504 16.4912 10.2857 17.5892 9.92064 18.8411C9.88976 18.9445 9.82668 19.035 9.73997 19.0994C9.65327 19.1637 9.54814 19.1984 9.44017 19.198C9.39291 19.1983 9.34519 19.1922 9.29954 19.1799ZM1.85521 17.6689C1.72805 17.6314 1.62074 17.5449 1.55736 17.4285C1.49397 17.312 1.47883 17.175 1.51634 17.0479C1.83929 15.9409 2.51733 14.9706 3.44505 14.2859C4.35955 13.6022 5.4712 13.2339 6.61302 13.2361H6.66868C7.52174 13.236 8.3624 13.4417 9.11888 13.8359C9.17753 13.866 9.22961 13.9074 9.2722 13.9578C9.31479 14.0081 9.34694 14.0663 9.36693 14.1292C9.38691 14.192 9.3941 14.2583 9.38841 14.324C9.38272 14.3897 9.36421 14.4535 9.33372 14.512C9.27123 14.629 9.16549 14.7169 9.0388 14.7563C8.91211 14.7958 8.7749 14.7837 8.65697 14.7229C8.03507 14.3986 7.34273 14.231 6.64134 14.2349H6.63548C5.69921 14.2275 4.78658 14.5264 4.03587 15.0859C3.28492 15.6434 2.73571 16.4305 2.4724 17.3279C2.44166 17.4309 2.37881 17.5214 2.29271 17.5857C2.20661 17.65 2.10232 17.6848 1.99486 17.6851C1.94836 17.6856 1.9023 17.6801 1.85716 17.6689H1.85521ZM3.614 9.24902C3.61479 8.44699 3.93359 7.67797 4.50072 7.11084C5.06784 6.54371 5.83638 6.22467 6.63841 6.22388C7.44029 6.2252 8.2091 6.54432 8.77611 7.11133C9.34312 7.67834 9.66248 8.44715 9.6638 9.24902C9.66327 10.0512 9.34424 10.8204 8.77708 11.3877C8.20993 11.955 7.44062 12.2741 6.63841 12.2749C5.83639 12.2741 5.06755 11.9551 4.50072 11.3877C3.93388 10.8203 3.61595 10.051 3.61595 9.24902H3.614ZM4.614 9.24902C4.614 9.78619 4.82731 10.3014 5.20677 10.6816C5.58623 11.0618 6.10027 11.2758 6.63743 11.2769C7.17444 11.2753 7.68875 11.061 8.0681 10.6809C8.44744 10.3008 8.66132 9.78603 8.66185 9.24902C8.66053 8.71263 8.44641 8.19862 8.06712 7.81934C7.68783 7.44005 7.17383 7.22617 6.63743 7.22485C6.1014 7.22644 5.58845 7.44051 5.2097 7.81982C4.83095 8.19914 4.61772 8.71299 4.61693 9.24902H4.614ZM11.8015 7.95898C11.8031 6.92088 12.2169 5.9257 12.9509 5.19165C13.685 4.4576 14.6794 4.04456 15.7175 4.04297C16.7558 4.04403 17.7519 4.457 18.4861 5.19116C19.2202 5.92533 19.6325 6.92072 19.6335 7.95898C19.633 8.99741 19.2203 9.99302 18.4861 10.7273C17.7518 11.4616 16.7559 11.8745 15.7175 11.875C14.6799 11.8729 13.6862 11.4594 12.9529 10.7253C12.2196 9.99129 11.8065 8.99656 11.8054 7.95898H11.8015ZM12.8015 7.95898C12.8018 8.73201 13.1094 9.47316 13.656 10.0198C14.2026 10.5664 14.9435 10.8738 15.7165 10.874C16.4895 10.8735 17.2305 10.5661 17.7771 10.0195C18.3236 9.47298 18.631 8.73193 18.6316 7.95898C18.631 7.18604 18.3236 6.44499 17.7771 5.89844C17.2305 5.35188 16.4895 5.04448 15.7165 5.04395C14.9444 5.04553 14.2044 5.35343 13.6589 5.8999C13.1134 6.44637 12.8066 7.18682 12.8064 7.95898H12.8015Z" fill="#9C9C9C"/>
</svg>
