<svg width="24" height="24" viewBox="0 0 24 24" fill="none" xmlns="http://www.w3.org/2000/svg">
<path d="M19.5 21.0081H3.5C3.36739 21.0081 3.24025 20.9553 3.14648 20.8616C3.05272 20.7678 3 20.6407 3 20.5081C3 20.3754 3.05272 20.2482 3.14648 20.1544C3.24025 20.0606 3.36739 20.0081 3.5 20.0081H3.80957V7.75696C3.78446 7.16834 3.97219 6.59032 4.33789 6.12842C4.7036 5.66651 5.22308 5.35154 5.80176 5.24096C7.57176 4.76096 13.3863 3.03198 13.4443 3.01098C13.5194 2.99042 13.5983 2.98714 13.6748 3.00134C13.7514 3.01554 13.823 3.04689 13.8857 3.09301C13.9478 3.13959 13.9985 3.19998 14.0332 3.26941C14.0679 3.33883 14.0859 3.41542 14.0859 3.49304V4.932L17.8643 6.21704C18.0523 6.27504 19.981 6.90503 19.999 8.50403V8.52502C19.966 9.74702 19.99 17.895 19.999 20.01H20.499C20.6316 20.01 20.7588 20.0627 20.8525 20.1565C20.9463 20.2503 20.999 20.3774 20.999 20.51C20.999 20.6426 20.9463 20.7698 20.8525 20.8635C20.7588 20.9573 20.6316 21.01 20.499 21.01L19.5 21.0081ZM19 20.0081C18.991 17.8721 18.966 9.79505 19 8.50805C18.979 7.62005 17.5833 7.17695 17.5693 7.17395L17.5488 7.16699L14.083 5.98803V20.011L19 20.0081ZM13.0859 20.0081V4.16198C11.5099 4.63198 7.47957 5.82301 6.05957 6.20801C6.05957 6.20801 6.0499 6.20801 6.0459 6.20801C5.69347 6.25996 5.37241 6.44004 5.14453 6.71386C4.91665 6.98769 4.79763 7.33601 4.81055 7.69201V20.005L13.0859 20.0081ZM15.752 18.0081C15.6193 18.0081 15.4922 17.9553 15.3984 17.8616C15.3047 17.7678 15.252 17.6407 15.252 17.5081C15.252 17.3754 15.3047 17.2482 15.3984 17.1544C15.4922 17.0606 15.6193 17.0081 15.752 17.0081H17.252C17.3846 17.0081 17.5117 17.0606 17.6055 17.1544C17.6992 17.2482 17.752 17.3754 17.752 17.5081C17.752 17.6407 17.6992 17.7678 17.6055 17.8616C17.5117 17.9553 17.3846 18.0081 17.252 18.0081H15.752ZM7.5 18.0081C7.36739 18.0081 7.24025 17.9553 7.14648 17.8616C7.05272 17.7678 7 17.6407 7 17.5081C7 17.3754 7.05272 17.2482 7.14648 17.1544C7.24025 17.0606 7.36739 17.0081 7.5 17.0081H10.5C10.6326 17.0081 10.7597 17.0606 10.8535 17.1544C10.9473 17.2482 11 17.3754 11 17.5081C11 17.6407 10.9473 17.7678 10.8535 17.8616C10.7597 17.9553 10.6326 18.0081 10.5 18.0081H7.5ZM15.752 14.0081C15.6193 14.0081 15.4922 13.9553 15.3984 13.8616C15.3047 13.7678 15.252 13.6407 15.252 13.5081C15.252 13.3754 15.3047 13.2482 15.3984 13.1544C15.4922 13.0606 15.6193 13.0081 15.752 13.0081H17.252C17.3846 13.0081 17.5117 13.0606 17.6055 13.1544C17.6992 13.2482 17.752 13.3754 17.752 13.5081C17.752 13.6407 17.6992 13.7678 17.6055 13.8616C17.5117 13.9553 17.3846 14.0081 17.252 14.0081H15.752ZM7.5 14.0081C7.36739 14.0081 7.24025 13.9553 7.14648 13.8616C7.05272 13.7678 7 13.6407 7 13.5081C7 13.3754 7.05272 13.2482 7.14648 13.1544C7.24025 13.0606 7.36739 13.0081 7.5 13.0081H10.5C10.6326 13.0081 10.7597 13.0606 10.8535 13.1544C10.9473 13.2482 11 13.3754 11 13.5081C11 13.6407 10.9473 13.7678 10.8535 13.8616C10.7597 13.9553 10.6326 14.0081 10.5 14.0081H7.5ZM15.752 10.0081C15.6193 10.0081 15.4922 9.95534 15.3984 9.86157C15.3047 9.7678 15.252 9.64066 15.252 9.50805C15.252 9.37545 15.3047 9.24818 15.3984 9.15442C15.4922 9.06065 15.6193 9.00805 15.752 9.00805H17.252C17.3846 9.00805 17.5117 9.06065 17.6055 9.15442C17.6992 9.24818 17.752 9.37545 17.752 9.50805C17.752 9.64066 17.6992 9.7678 17.6055 9.86157C17.5117 9.95534 17.3846 10.0081 17.252 10.0081H15.752ZM7.5 10.0081C7.36739 10.0081 7.24025 9.95534 7.14648 9.86157C7.05272 9.7678 7 9.64066 7 9.50805C7 9.37545 7.05272 9.24818 7.14648 9.15442C7.24025 9.06065 7.36739 9.00805 7.5 9.00805H10.5C10.6326 9.00805 10.7597 9.06065 10.8535 9.15442C10.9473 9.24818 11 9.37545 11 9.50805C11 9.64066 10.9473 9.7678 10.8535 9.86157C10.7597 9.95534 10.6326 10.0081 10.5 10.0081H7.5Z" fill="#9C9C9C"/>
</svg>
